<?xml version="1.0" encoding="UTF-8" standalone="no"?>
<!DOCTYPE svg PUBLIC "-//W3C//DTD SVG 1.1//EN" "http://www.w3.org/Graphics/SVG/1.1/DTD/svg11.dtd">
<svg xmlns="http://www.w3.org/2000/svg" version="1.1" viewBox="0 0 512 512">
<g stroke-width="2.0" fill="none" stroke-linecap="butt">
<path stroke="#8c9299" vector-effect="non-scaling-stroke" d="
  M 403.75 496.54
  Q 404.46 496.52 404.50 496.00
  Q 404.87 490.77 408.23 487.68
  Q 410.38 485.70 414.24 484.79
  Q 417.55 484.00 421.00 483.99
  Q 432.89 483.95 443.49 478.67
  Q 465.43 467.74 472.79 444.31
  Q 476.64 432.07 474.50 420.00
  Q 472.49 408.69 469.29 394.81
  Q 465.45 378.14 465.43 378.04
  Q 427.73 209.90 389.78 41.12
  Q 389.48 39.76 388.51 40.76
  Q 367.80 62.05 338.69 66.86
  Q 328.82 68.48 318.75 67.83
  Q 284.50 65.59 259.59 40.59
  Q 258.89 39.88 258.67 40.85
  Q 218.49 219.71 178.32 398.93
  Q 178.31 398.97 176.71 405.68
  Q 174.46 415.10 173.50 425.50
  Q 173.06 430.31 173.82 434.70
  Q 174.08 436.16 174.25 438.85
  Q 174.39 440.99 175.11 443.00
  Q 176.28 446.33 176.32 446.45
  Q 179.55 457.01 186.94 465.31
  Q 198.13 477.90 214.29 482.77
  Q 218.62 484.08 224.25 484.00
  Q 228.98 483.93 235.12 484.84
  Q 240.89 485.69 243.35 487.48
  Q 247.19 490.29 247.75 495.75
  Q 247.81 496.37 248.25 496.54"
/>
<path stroke="#8c9299" vector-effect="non-scaling-stroke" d="
  M 121.00 449.71
  Q 120.51 450.02 120.00 451.00
  Q 115.53 459.55 105.79 457.32
  Q 84.61 452.47 63.44 447.56
  Q 58.38 446.39 54.30 446.37
  Q 49.62 446.34 45.57 448.59
  Q 37.91 452.85 36.52 461.48
  Q 35.51 467.67 37.63 472.86
  Q 39.92 478.49 45.66 481.86
  Q 49.30 484.00 55.50 484.00
  Q 112.62 484.00 170.23 484.00
  Q 171.73 484.00 170.72 482.89
  Q 160.57 471.78 155.15 458.58
  Q 154.94 458.06 154.46 457.75"
/>
<path stroke="#8c9299" vector-effect="non-scaling-stroke" d="
  M 375.50 496.54
  Q 375.11 496.37 375.34 496.08
  Q 379.89 490.23 382.23 483.40
  Q 383.15 480.74 385.41 469.50
  Q 401.79 388.15 417.87 306.74
  Q 419.69 297.49 419.44 295.18
  Q 418.68 288.29 410.90 285.40
  Q 408.10 284.37 405.75 285.00
  Q 397.48 287.24 395.76 295.95
  Q 378.48 383.75 361.00 471.50
  Q 360.23 475.32 359.25 477.50
  Q 356.92 482.66 350.99 483.70
  Q 340.99 485.45 337.23 477.13
  Q 336.52 475.57 336.28 473.64
  Q 336.05 471.83 336.05 470.00
  Q 336.00 406.87 336.00 343.75
  Q 336.00 343.65 336.09 340.26
  Q 336.22 335.15 334.75 331.50
  Q 332.15 325.06 324.50 324.93
  Q 317.48 324.81 314.26 330.10
  Q 312.97 332.21 312.45 335.63
  Q 312.00 338.54 312.00 341.50
  Q 312.00 406.63 312.00 471.75
  Q 312.00 478.25 307.72 481.58
  Q 305.14 483.58 300.30 484.02
  Q 295.57 484.44 292.31 483.69
  Q 288.21 482.74 285.87 479.15
  Q 284.51 477.06 283.50 472.06
  Q 265.70 383.94 248.25 295.75
  Q 246.71 287.97 240.15 285.60
  Q 236.46 284.27 232.81 285.39
  Q 228.75 286.64 226.64 290.16
  Q 224.69 293.39 225.20 298.67
  Q 225.56 302.43 226.56 307.44
  Q 242.55 387.37 258.51 467.30
  Q 261.02 479.86 261.77 482.13
  Q 264.18 489.46 269.05 495.70
  Q 269.53 496.31 268.75 496.29"
/>
<path stroke="#8c9299" vector-effect="non-scaling-stroke" d="
  M 295.70 136.27
  C 295.70 129.89 290.53 124.72 284.15 124.72
  C 277.77 124.72 272.60 129.89 272.60 136.27
  C 272.60 142.65 277.77 147.82 284.15 147.82
  C 290.53 147.82 295.70 142.65 295.70 136.27"
/>
<path stroke="#8c9299" vector-effect="non-scaling-stroke" d="
  M 375.71 136.27
  C 375.71 129.89 370.54 124.72 364.16 124.72
  C 357.78 124.72 352.61 129.89 352.61 136.27
  C 352.61 142.65 357.78 147.82 364.16 147.82
  C 370.54 147.82 375.71 142.65 375.71 136.27"
/>
</g>
<g fill="#444b54">
<path d="
  M 403.75 496.54
  Q 404.46 496.52 404.50 496.00
  Q 404.87 490.77 408.23 487.68
  Q 410.38 485.70 414.24 484.79
  Q 417.55 484.00 421.00 483.99
  Q 432.89 483.95 443.49 478.67
  Q 465.43 467.74 472.79 444.31
  Q 476.64 432.07 474.50 420.00
  Q 472.49 408.69 469.29 394.81
  Q 465.45 378.14 465.43 378.04
  Q 427.73 209.90 389.78 41.12
  Q 389.48 39.76 388.51 40.76
  Q 367.80 62.05 338.69 66.86
  Q 328.82 68.48 318.75 67.83
  Q 284.50 65.59 259.59 40.59
  Q 258.89 39.88 258.67 40.85
  Q 218.49 219.71 178.32 398.93
  Q 178.31 398.97 176.71 405.68
  Q 174.46 415.10 173.50 425.50
  Q 173.06 430.31 173.82 434.70
  Q 174.08 436.16 174.25 438.85
  Q 174.39 440.99 175.11 443.00
  Q 176.28 446.33 176.32 446.45
  Q 179.55 457.01 186.94 465.31
  Q 198.13 477.90 214.29 482.77
  Q 218.62 484.08 224.25 484.00
  Q 228.98 483.93 235.12 484.84
  Q 240.89 485.69 243.35 487.48
  Q 247.19 490.29 247.75 495.75
  Q 247.81 496.37 248.25 496.54
  Q 246.87 506.79 238.22 508.30
  Q 236.67 508.57 228.25 508.53
  Q 224.92 508.51 221.59 508.39
  Q 217.42 508.25 214.91 508.23
  Q 137.13 507.84 59.35 507.98
  Q 49.46 508.00 44.27 506.65
  Q 33.18 503.75 25.16 495.89
  Q 18.01 488.88 14.62 479.13
  Q 8.38 461.21 18.56 443.31
  Q 21.31 438.49 25.45 434.51
  Q 29.26 430.85 34.43 428.05
  Q 44.75 422.45 55.50 422.50
  Q 60.87 422.53 69.42 424.62
  Q 75.65 426.16 75.75 426.18
  Q 90.47 429.60 105.16 433.14
  Q 113.02 435.03 114.25 435.63
  Q 118.92 437.89 120.77 443.17
  Q 121.21 444.40 121.01 446.39
  Q 120.85 448.05 121.00 449.71
  Q 120.51 450.02 120.00 451.00
  Q 115.53 459.55 105.79 457.32
  Q 84.61 452.47 63.44 447.56
  Q 58.38 446.39 54.30 446.37
  Q 49.62 446.34 45.57 448.59
  Q 37.91 452.85 36.52 461.48
  Q 35.51 467.67 37.63 472.86
  Q 39.92 478.49 45.66 481.86
  Q 49.30 484.00 55.50 484.00
  Q 112.62 484.00 170.23 484.00
  Q 171.73 484.00 170.72 482.89
  Q 160.57 471.78 155.15 458.58
  Q 154.94 458.06 154.46 457.75
  Q 145.88 434.04 151.56 408.81
  Q 195.25 214.84 239.01 20.89
  Q 240.97 12.21 241.79 10.60
  Q 244.67 4.94 251.67 4.49
  Q 255.27 4.25 258.32 6.16
  Q 261.14 7.92 263.75 10.75
  Q 270.80 18.38 280.10 26.65
  Q 288.26 33.91 294.73 37.15
  Q 304.75 42.18 316.00 43.50
  Q 337.07 45.98 355.08 36.33
  Q 360.95 33.19 368.17 26.61
  Q 377.75 17.87 386.75 8.51
  Q 392.40 2.63 399.81 4.94
  Q 403.90 6.22 406.13 9.82
  Q 407.34 11.78 408.53 17.04
  Q 451.62 208.73 494.62 400.43
  Q 497.67 414.01 498.24 420.08
  Q 501.24 452.07 482.04 477.20
  Q 475.74 485.44 468.06 491.41
  Q 454.26 502.14 436.73 506.18
  Q 427.78 508.25 418.65 508.05
  Q 412.78 507.92 409.95 506.42
  Q 405.51 504.06 404.50 498.50
  Q 404.23 497.01 403.75 496.54
  Z"
/>
<circle cx="284.15" cy="136.27" r="11.55"/>
<circle cx="364.16" cy="136.27" r="11.55"/>
<path d="
  M 375.50 496.54
  Q 373.78 497.43 372.37 498.71
  Q 370.24 500.65 369.51 501.13
  Q 348.55 515.08 327.15 501.24
  Q 327.10 501.21 325.60 499.97
  Q 323.95 498.60 322.29 500.07
  Q 321.03 501.18 321.01 501.19
  Q 312.57 507.30 301.00 508.00
  Q 286.25 508.89 275.06 501.23
  Q 274.41 500.79 272.03 498.63
  Q 270.53 497.28 268.75 496.29
  Q 269.53 496.31 269.05 495.70
  Q 264.18 489.46 261.77 482.13
  Q 261.02 479.86 258.51 467.30
  Q 242.55 387.37 226.56 307.44
  Q 225.56 302.43 225.20 298.67
  Q 224.69 293.39 226.64 290.16
  Q 228.75 286.64 232.81 285.39
  Q 236.46 284.27 240.15 285.60
  Q 246.71 287.97 248.25 295.75
  Q 265.70 383.94 283.50 472.06
  Q 284.51 477.06 285.87 479.15
  Q 288.21 482.74 292.31 483.69
  Q 295.57 484.44 300.30 484.02
  Q 305.14 483.58 307.72 481.58
  Q 312.00 478.25 312.00 471.75
  Q 312.00 406.63 312.00 341.50
  Q 312.00 338.54 312.45 335.63
  Q 312.97 332.21 314.26 330.10
  Q 317.48 324.81 324.50 324.93
  Q 332.15 325.06 334.75 331.50
  Q 336.22 335.15 336.09 340.26
  Q 336.00 343.65 336.00 343.75
  Q 336.00 406.87 336.05 470.00
  Q 336.05 471.83 336.28 473.64
  Q 336.52 475.57 337.23 477.13
  Q 340.99 485.45 350.99 483.70
  Q 356.92 482.66 359.25 477.50
  Q 360.23 475.32 361.00 471.50
  Q 378.48 383.75 395.76 295.95
  Q 397.48 287.24 405.75 285.00
  Q 408.10 284.37 410.90 285.40
  Q 418.68 288.29 419.44 295.18
  Q 419.69 297.49 417.87 306.74
  Q 401.79 388.15 385.41 469.50
  Q 383.15 480.74 382.23 483.40
  Q 379.89 490.23 375.34 496.08
  Q 375.11 496.37 375.50 496.54
  Z"
/>
</g>
<g fill="#d3d8dd">
<path d="
  M 403.75 496.54
  L 375.50 496.54
  Q 375.11 496.37 375.34 496.08
  Q 379.89 490.23 382.23 483.40
  Q 383.15 480.74 385.41 469.50
  Q 401.79 388.15 417.87 306.74
  Q 419.69 297.49 419.44 295.18
  Q 418.68 288.29 410.90 285.40
  Q 408.10 284.37 405.75 285.00
  Q 397.48 287.24 395.76 295.95
  Q 378.48 383.75 361.00 471.50
  Q 360.23 475.32 359.25 477.50
  Q 356.92 482.66 350.99 483.70
  Q 340.99 485.45 337.23 477.13
  Q 336.52 475.57 336.28 473.64
  Q 336.05 471.83 336.05 470.00
  Q 336.00 406.87 336.00 343.75
  Q 336.00 343.65 336.09 340.26
  Q 336.22 335.15 334.75 331.50
  Q 332.15 325.06 324.50 324.93
  Q 317.48 324.81 314.26 330.10
  Q 312.97 332.21 312.45 335.63
  Q 312.00 338.54 312.00 341.50
  Q 312.00 406.63 312.00 471.75
  Q 312.00 478.25 307.72 481.58
  Q 305.14 483.58 300.30 484.02
  Q 295.57 484.44 292.31 483.69
  Q 288.21 482.74 285.87 479.15
  Q 284.51 477.06 283.50 472.06
  Q 265.70 383.94 248.25 295.75
  Q 246.71 287.97 240.15 285.60
  Q 236.46 284.27 232.81 285.39
  Q 228.75 286.64 226.64 290.16
  Q 224.69 293.39 225.20 298.67
  Q 225.56 302.43 226.56 307.44
  Q 242.55 387.37 258.51 467.30
  Q 261.02 479.86 261.77 482.13
  Q 264.18 489.46 269.05 495.70
  Q 269.53 496.31 268.75 496.29
  L 248.25 496.54
  Q 247.81 496.37 247.75 495.75
  Q 247.19 490.29 243.35 487.48
  Q 240.89 485.69 235.12 484.84
  Q 228.98 483.93 224.25 484.00
  Q 218.62 484.08 214.29 482.77
  Q 198.13 477.90 186.94 465.31
  Q 179.55 457.01 176.32 446.45
  Q 176.28 446.33 175.11 443.00
  Q 174.39 440.99 174.25 438.85
  Q 174.08 436.16 173.82 434.70
  Q 173.06 430.31 173.50 425.50
  Q 174.46 415.10 176.71 405.68
  Q 178.31 398.97 178.32 398.93
  Q 218.49 219.71 258.67 40.85
  Q 258.89 39.88 259.59 40.59
  Q 284.50 65.59 318.75 67.83
  Q 328.82 68.48 338.69 66.86
  Q 367.80 62.05 388.51 40.76
  Q 389.48 39.76 389.78 41.12
  Q 427.73 209.90 465.43 378.04
  Q 465.45 378.14 469.29 394.81
  Q 472.49 408.69 474.50 420.00
  Q 476.64 432.07 472.79 444.31
  Q 465.43 467.74 443.49 478.67
  Q 432.89 483.95 421.00 483.99
  Q 417.55 484.00 414.24 484.79
  Q 410.38 485.70 408.23 487.68
  Q 404.87 490.77 404.50 496.00
  Q 404.46 496.52 403.75 496.54
  Z
  M 295.70 136.27
  C 295.70 129.89 290.53 124.72 284.15 124.72
  C 277.77 124.72 272.60 129.89 272.60 136.27
  C 272.60 142.65 277.77 147.82 284.15 147.82
  C 290.53 147.82 295.70 142.65 295.70 136.27
  Z
  M 375.71 136.27
  C 375.71 129.89 370.54 124.72 364.16 124.72
  C 357.78 124.72 352.61 129.89 352.61 136.27
  C 352.61 142.65 357.78 147.82 364.16 147.82
  C 370.54 147.82 375.71 142.65 375.71 136.27
  Z"
/>
<path d="
  M 121.00 449.71
  L 154.46 457.75
  Q 154.94 458.06 155.15 458.58
  Q 160.57 471.78 170.72 482.89
  Q 171.73 484.00 170.23 484.00
  Q 112.62 484.00 55.50 484.00
  Q 49.30 484.00 45.66 481.86
  Q 39.92 478.49 37.63 472.86
  Q 35.51 467.67 36.52 461.48
  Q 37.91 452.85 45.57 448.59
  Q 49.62 446.34 54.30 446.37
  Q 58.38 446.39 63.44 447.56
  Q 84.61 452.47 105.79 457.32
  Q 115.53 459.55 120.00 451.00
  Q 120.51 450.02 121.00 449.71
  Z"
/>
</g>
</svg>
